<svg xmlns="http://www.w3.org/2000/svg" xmlns:xlink="http://www.w3.org/1999/xlink" width="700" zoomAndPan="magnify" viewBox="0 0 525 165.000002" height="220" preserveAspectRatio="xMidYMid meet" version="1.0"><defs><g/><clipPath id="1d9fede528"><path d="M 376.316406 0 L 523 0 L 523 164.007812 L 376.316406 164.007812 Z M 376.316406 0 " clip-rule="nonzero"/></clipPath></defs><g fill="#ffffff" fill-opacity="1"><g transform="translate(7.165417, 95.171608)"><g><path d="M 14.09375 0.34375 C 11.707031 0.34375 9.550781 -0.175781 7.625 -1.21875 C 5.707031 -2.269531 4.203125 -3.71875 3.109375 -5.5625 C 2.023438 -7.40625 1.484375 -9.484375 1.484375 -11.796875 C 1.484375 -14.109375 2.03125 -16.1875 3.125 -18.03125 C 4.226562 -19.875 5.738281 -21.316406 7.65625 -22.359375 C 9.582031 -23.398438 11.738281 -23.921875 14.125 -23.921875 C 16.050781 -23.921875 17.8125 -23.582031 19.40625 -22.90625 C 21.007812 -22.238281 22.359375 -21.265625 23.453125 -19.984375 L 20.625 -17.328125 C 18.914062 -19.171875 16.816406 -20.09375 14.328125 -20.09375 C 12.703125 -20.09375 11.25 -19.738281 9.96875 -19.03125 C 8.695312 -18.320312 7.695312 -17.335938 6.96875 -16.078125 C 6.25 -14.816406 5.890625 -13.390625 5.890625 -11.796875 C 5.890625 -10.203125 6.25 -8.773438 6.96875 -7.515625 C 7.695312 -6.253906 8.695312 -5.269531 9.96875 -4.5625 C 11.25 -3.851562 12.703125 -3.5 14.328125 -3.5 C 16.816406 -3.5 18.914062 -4.429688 20.625 -6.296875 L 23.453125 -3.609375 C 22.359375 -2.328125 21.003906 -1.347656 19.390625 -0.671875 C 17.785156 0.00390625 16.019531 0.34375 14.09375 0.34375 Z M 14.09375 0.34375 "/></g></g></g><g fill="#ffffff" fill-opacity="1"><g transform="translate(38.413711, 95.171608)"><g><path d="M 14.1875 0.34375 C 11.78125 0.34375 9.609375 -0.175781 7.671875 -1.21875 C 5.742188 -2.269531 4.226562 -3.722656 3.125 -5.578125 C 2.03125 -7.429688 1.484375 -9.503906 1.484375 -11.796875 C 1.484375 -14.085938 2.03125 -16.160156 3.125 -18.015625 C 4.226562 -19.867188 5.742188 -21.316406 7.671875 -22.359375 C 9.609375 -23.398438 11.78125 -23.921875 14.1875 -23.921875 C 16.59375 -23.921875 18.757812 -23.398438 20.6875 -22.359375 C 22.625 -21.316406 24.140625 -19.875 25.234375 -18.03125 C 26.335938 -16.1875 26.890625 -14.109375 26.890625 -11.796875 C 26.890625 -9.484375 26.335938 -7.40625 25.234375 -5.5625 C 24.140625 -3.71875 22.625 -2.269531 20.6875 -1.21875 C 18.757812 -0.175781 16.59375 0.34375 14.1875 0.34375 Z M 14.1875 -3.5 C 15.757812 -3.5 17.175781 -3.851562 18.4375 -4.5625 C 19.695312 -5.269531 20.6875 -6.257812 21.40625 -7.53125 C 22.125 -8.800781 22.484375 -10.222656 22.484375 -11.796875 C 22.484375 -13.367188 22.125 -14.789062 21.40625 -16.0625 C 20.6875 -17.332031 19.695312 -18.320312 18.4375 -19.03125 C 17.175781 -19.738281 15.757812 -20.09375 14.1875 -20.09375 C 12.613281 -20.09375 11.195312 -19.738281 9.9375 -19.03125 C 8.6875 -18.320312 7.695312 -17.332031 6.96875 -16.0625 C 6.25 -14.789062 5.890625 -13.367188 5.890625 -11.796875 C 5.890625 -10.222656 6.25 -8.800781 6.96875 -7.53125 C 7.695312 -6.257812 8.6875 -5.269531 9.9375 -4.5625 C 11.195312 -3.851562 12.613281 -3.5 14.1875 -3.5 Z M 14.1875 -3.5 "/></g></g></g><g fill="#ffffff" fill-opacity="1"><g transform="translate(73.538336, 95.171608)"><g><path d="M 14.09375 0.34375 C 11.707031 0.34375 9.550781 -0.175781 7.625 -1.21875 C 5.707031 -2.269531 4.203125 -3.71875 3.109375 -5.5625 C 2.023438 -7.40625 1.484375 -9.484375 1.484375 -11.796875 C 1.484375 -14.109375 2.03125 -16.1875 3.125 -18.03125 C 4.226562 -19.875 5.738281 -21.316406 7.65625 -22.359375 C 9.582031 -23.398438 11.738281 -23.921875 14.125 -23.921875 C 16.050781 -23.921875 17.8125 -23.582031 19.40625 -22.90625 C 21.007812 -22.238281 22.359375 -21.265625 23.453125 -19.984375 L 20.625 -17.328125 C 18.914062 -19.171875 16.816406 -20.09375 14.328125 -20.09375 C 12.703125 -20.09375 11.25 -19.738281 9.96875 -19.03125 C 8.695312 -18.320312 7.695312 -17.335938 6.96875 -16.078125 C 6.25 -14.816406 5.890625 -13.390625 5.890625 -11.796875 C 5.890625 -10.203125 6.25 -8.773438 6.96875 -7.515625 C 7.695312 -6.253906 8.695312 -5.269531 9.96875 -4.5625 C 11.25 -3.851562 12.703125 -3.5 14.328125 -3.5 C 16.816406 -3.5 18.914062 -4.429688 20.625 -6.296875 L 23.453125 -3.609375 C 22.359375 -2.328125 21.003906 -1.347656 19.390625 -0.671875 C 17.785156 0.00390625 16.019531 0.34375 14.09375 0.34375 Z M 14.09375 0.34375 "/></g></g></g><g fill="#ffffff" fill-opacity="1"><g transform="translate(104.786625, 95.171608)"><g><path d="M 14.1875 0.34375 C 11.78125 0.34375 9.609375 -0.175781 7.671875 -1.21875 C 5.742188 -2.269531 4.226562 -3.722656 3.125 -5.578125 C 2.03125 -7.429688 1.484375 -9.503906 1.484375 -11.796875 C 1.484375 -14.085938 2.03125 -16.160156 3.125 -18.015625 C 4.226562 -19.867188 5.742188 -21.316406 7.671875 -22.359375 C 9.609375 -23.398438 11.78125 -23.921875 14.1875 -23.921875 C 16.59375 -23.921875 18.757812 -23.398438 20.6875 -22.359375 C 22.625 -21.316406 24.140625 -19.875 25.234375 -18.03125 C 26.335938 -16.1875 26.890625 -14.109375 26.890625 -11.796875 C 26.890625 -9.484375 26.335938 -7.40625 25.234375 -5.5625 C 24.140625 -3.71875 22.625 -2.269531 20.6875 -1.21875 C 18.757812 -0.175781 16.59375 0.34375 14.1875 0.34375 Z M 14.1875 -3.5 C 15.757812 -3.5 17.175781 -3.851562 18.4375 -4.5625 C 19.695312 -5.269531 20.6875 -6.257812 21.40625 -7.53125 C 22.125 -8.800781 22.484375 -10.222656 22.484375 -11.796875 C 22.484375 -13.367188 22.125 -14.789062 21.40625 -16.0625 C 20.6875 -17.332031 19.695312 -18.320312 18.4375 -19.03125 C 17.175781 -19.738281 15.757812 -20.09375 14.1875 -20.09375 C 12.613281 -20.09375 11.195312 -19.738281 9.9375 -19.03125 C 8.6875 -18.320312 7.695312 -17.332031 6.96875 -16.0625 C 6.25 -14.789062 5.890625 -13.367188 5.890625 -11.796875 C 5.890625 -10.222656 6.25 -8.800781 6.96875 -7.53125 C 7.695312 -6.257812 8.6875 -5.269531 9.9375 -4.5625 C 11.195312 -3.851562 12.613281 -3.5 14.1875 -3.5 Z M 14.1875 -3.5 "/></g></g></g><g fill="#ffffff" fill-opacity="1"><g transform="translate(139.911255, 95.171608)"><g/></g></g><g fill="#ffffff" fill-opacity="1"><g transform="translate(155.957586, 95.171608)"><g><path d="M 3.171875 -23.59375 L 13.484375 -23.59375 C 15.992188 -23.59375 18.226562 -23.101562 20.1875 -22.125 C 22.144531 -21.144531 23.660156 -19.757812 24.734375 -17.96875 C 25.816406 -16.1875 26.359375 -14.128906 26.359375 -11.796875 C 26.359375 -9.460938 25.816406 -7.398438 24.734375 -5.609375 C 23.660156 -3.828125 22.144531 -2.445312 20.1875 -1.46875 C 18.226562 -0.488281 15.992188 0 13.484375 0 L 3.171875 0 Z M 13.28125 -3.703125 C 15.007812 -3.703125 16.53125 -4.035156 17.84375 -4.703125 C 19.15625 -5.367188 20.164062 -6.3125 20.875 -7.53125 C 21.582031 -8.757812 21.9375 -10.179688 21.9375 -11.796875 C 21.9375 -13.410156 21.582031 -14.828125 20.875 -16.046875 C 20.164062 -17.273438 19.15625 -18.222656 17.84375 -18.890625 C 16.53125 -19.554688 15.007812 -19.890625 13.28125 -19.890625 L 7.546875 -19.890625 L 7.546875 -3.703125 Z M 13.28125 -3.703125 "/></g></g></g><g fill="#ffffff" fill-opacity="1"><g transform="translate(190.542905, 95.171608)"><g><path d="M 20.859375 -3.671875 L 20.859375 0 L 3.171875 0 L 3.171875 -23.59375 L 20.390625 -23.59375 L 20.390625 -19.921875 L 7.546875 -19.921875 L 7.546875 -13.78125 L 18.9375 -13.78125 L 18.9375 -10.171875 L 7.546875 -10.171875 L 7.546875 -3.671875 Z M 20.859375 -3.671875 "/></g></g></g><g fill="#ffffff" fill-opacity="1"><g transform="translate(219.869895, 95.171608)"><g/></g></g><g fill="#ffffff" fill-opacity="1"><g transform="translate(235.916227, 95.171608)"><g><path d="M 24.125 -23.59375 L 24.125 0 L 20.53125 0 L 7.515625 -15.96875 L 7.515625 0 L 3.171875 0 L 3.171875 -23.59375 L 6.78125 -23.59375 L 19.78125 -7.609375 L 19.78125 -23.59375 Z M 24.125 -23.59375 "/></g></g></g><g fill="#ffffff" fill-opacity="1"><g transform="translate(269.962236, 95.171608)"><g><path d="M 3.171875 -23.59375 L 7.546875 -23.59375 L 7.546875 0 L 3.171875 0 Z M 3.171875 -23.59375 "/></g></g></g><g fill="#ffffff" fill-opacity="1"><g transform="translate(287.457967, 95.171608)"><g><path d="M 20.859375 -3.671875 L 20.859375 0 L 3.171875 0 L 3.171875 -23.59375 L 20.390625 -23.59375 L 20.390625 -19.921875 L 7.546875 -19.921875 L 7.546875 -13.78125 L 18.9375 -13.78125 L 18.9375 -10.171875 L 7.546875 -10.171875 L 7.546875 -3.671875 Z M 20.859375 -3.671875 "/></g></g></g><g fill="#ffffff" fill-opacity="1"><g transform="translate(316.784956, 95.171608)"><g><path d="M 24.734375 -23.59375 L 14.453125 0 L 10.140625 0 L -0.171875 -23.59375 L 4.578125 -23.59375 L 12.4375 -5.390625 L 20.359375 -23.59375 Z M 24.734375 -23.59375 "/></g></g></g><g fill="#ffffff" fill-opacity="1"><g transform="translate(348.100678, 95.171608)"><g><path d="M 20.859375 -3.671875 L 20.859375 0 L 3.171875 0 L 3.171875 -23.59375 L 20.390625 -23.59375 L 20.390625 -19.921875 L 7.546875 -19.921875 L 7.546875 -13.78125 L 18.9375 -13.78125 L 18.9375 -10.171875 L 7.546875 -10.171875 L 7.546875 -3.671875 Z M 20.859375 -3.671875 "/></g></g></g><g clip-path="url(#1d9fede528)"><path fill="#27aae1" d="M 515.785156 89.371094 L 515.714844 89.105469 C 515.136719 86.902344 512.886719 85.585938 510.6875 86.164062 L 481.320312 93.902344 C 480.269531 94.179688 479.15625 94.027344 478.214844 93.484375 L 464.71875 85.675781 L 464.738281 85.636719 C 461.992188 84.050781 461.992188 80.078125 464.738281 78.488281 L 478.640625 70.445312 C 479.578125 69.902344 480.695312 69.75 481.746094 70.027344 L 510.6875 77.65625 C 512.886719 78.234375 515.136719 76.917969 515.714844 74.714844 L 515.785156 74.449219 C 516.367188 72.242188 515.050781 69.984375 512.851562 69.40625 L 500.253906 66.085938 C 496.695312 65.152344 496.058594 60.363281 499.242188 58.523438 L 520.523438 46.207031 C 522.492188 45.066406 523.167969 42.542969 522.027344 40.570312 L 521.894531 40.332031 C 520.753906 38.359375 518.238281 37.683594 516.269531 38.820312 L 494.71875 51.292969 C 491.535156 53.136719 487.71875 50.1875 488.6875 46.632812 L 492.234375 33.613281 C 492.835938 31.414062 491.539062 29.144531 489.347656 28.542969 L 489.082031 28.472656 C 486.890625 27.871094 484.625 29.167969 484.027344 31.367188 L 476.027344 60.730469 C 475.742188 61.777344 475.054688 62.671875 474.117188 63.214844 L 460.351562 71.183594 L 460.332031 71.144531 L 460.328125 71.148438 C 457.585938 72.734375 454.152344 70.75 454.152344 67.574219 L 454.152344 51.175781 C 454.152344 50.085938 454.582031 49.042969 455.347656 48.269531 L 476.40625 26.957031 C 478.007812 25.339844 477.996094 22.726562 476.378906 21.121094 L 476.183594 20.929688 C 474.570312 19.324219 471.960938 19.335938 470.363281 20.957031 L 461.195312 30.230469 C 458.609375 32.851562 454.152344 31.011719 454.152344 27.328125 L 454.152344 2.695312 C 454.152344 0.417969 452.308594 -1.429688 450.035156 -1.429688 L 449.765625 -1.429688 C 447.492188 -1.429688 445.648438 0.417969 445.648438 2.695312 L 445.648438 27.640625 C 445.648438 31.328125 441.191406 33.164062 438.605469 30.542969 L 429.128906 20.957031 C 427.527344 19.335938 424.921875 19.324219 423.304688 20.929688 L 423.113281 21.121094 C 421.496094 22.726562 421.484375 25.339844 423.085938 26.957031 L 444.453125 48.582031 C 445.21875 49.355469 445.648438 50.398438 445.648438 51.488281 L 445.648438 67.441406 C 445.648438 70.617188 442.214844 72.605469 439.46875 71.015625 L 425.261719 62.792969 C 424.320312 62.246094 423.632812 61.355469 423.347656 60.304688 L 415.464844 31.367188 C 414.867188 29.167969 412.601562 27.871094 410.410156 28.472656 L 410.144531 28.542969 C 407.949219 29.144531 406.65625 31.414062 407.257812 33.613281 L 410.6875 46.207031 C 411.65625 49.761719 407.84375 52.710938 404.65625 50.867188 L 383.378906 38.554688 C 381.410156 37.414062 378.890625 38.089844 377.753906 40.0625 L 377.617188 40.300781 C 376.480469 42.273438 377.152344 44.800781 379.125 45.9375 L 400.671875 58.410156 C 403.859375 60.253906 403.21875 65.039062 399.660156 65.976562 L 386.640625 69.40625 C 384.441406 69.984375 383.125 72.242188 383.707031 74.449219 L 383.773438 74.714844 C 384.351562 76.917969 386.605469 78.234375 388.804688 77.65625 L 418.171875 69.914062 C 419.222656 69.640625 420.335938 69.789062 421.277344 70.332031 L 434.773438 78.144531 L 434.75 78.179688 L 435.289062 78.492188 C 438.03125 80.078125 438.03125 84.050781 435.289062 85.640625 L 420.855469 93.992188 C 419.914062 94.535156 418.796875 94.6875 417.75 94.410156 L 388.804688 86.78125 C 386.605469 86.203125 384.351562 87.519531 383.773438 89.726562 L 383.703125 89.988281 C 383.125 92.195312 384.441406 94.453125 386.640625 95.03125 L 399.238281 98.351562 C 402.792969 99.289062 403.433594 104.074219 400.25 105.917969 L 378.96875 118.230469 C 377 119.371094 376.324219 121.894531 377.460938 123.867188 L 377.597656 124.105469 C 378.734375 126.078125 381.253906 126.753906 383.222656 125.613281 L 404.773438 113.144531 C 407.957031 111.300781 411.773438 114.25 410.804688 117.804688 L 407.257812 130.824219 C 406.65625 133.023438 407.949219 135.292969 410.144531 135.894531 L 410.410156 135.964844 C 412.601562 136.566406 414.867188 135.269531 415.464844 133.070312 L 423.460938 103.707031 C 423.75 102.660156 424.4375 101.765625 425.375 101.222656 L 439.140625 93.257812 L 439.160156 93.292969 L 439.46875 93.113281 C 442.214844 91.523438 445.648438 93.511719 445.648438 96.6875 L 445.648438 112.953125 C 445.648438 114.042969 445.21875 115.085938 444.453125 115.859375 L 423.394531 137.171875 C 421.792969 138.789062 421.804688 141.402344 423.421875 143.007812 L 423.613281 143.199219 C 425.230469 144.804688 427.835938 144.792969 429.4375 143.171875 L 438.605469 133.898438 C 441.191406 131.277344 445.648438 133.113281 445.648438 136.800781 L 445.648438 161.429688 C 445.648438 163.710938 447.492188 165.558594 449.765625 165.558594 L 450.035156 165.558594 C 452.308594 165.558594 454.152344 163.710938 454.152344 161.429688 L 454.152344 136.488281 C 454.152344 132.800781 458.609375 130.964844 461.195312 133.585938 L 470.671875 143.171875 C 472.269531 144.792969 474.878906 144.804688 476.492188 143.199219 L 476.6875 143.007812 C 478.304688 141.402344 478.316406 138.789062 476.714844 137.171875 L 455.347656 115.546875 C 454.582031 114.773438 454.152344 113.730469 454.152344 112.640625 L 454.152344 96.558594 C 454.152344 93.378906 457.585938 91.394531 460.328125 92.980469 L 474.230469 101.027344 C 475.171875 101.570312 475.859375 102.464844 476.144531 103.515625 L 484.027344 132.453125 C 484.625 134.652344 486.890625 135.945312 489.082031 135.347656 L 489.347656 135.273438 C 491.542969 134.671875 492.835938 132.40625 492.234375 130.207031 L 488.804688 117.613281 C 487.835938 114.054688 491.648438 111.105469 494.835938 112.949219 L 516.113281 125.265625 C 518.082031 126.40625 520.601562 125.726562 521.738281 123.753906 L 521.875 123.519531 C 523.011719 121.542969 522.335938 119.019531 520.367188 117.878906 L 498.816406 105.40625 C 495.632812 103.566406 496.273438 98.777344 499.832031 97.839844 L 512.851562 94.410156 C 515.050781 93.832031 516.367188 91.574219 515.785156 89.371094 " fill-opacity="1" fill-rule="nonzero"/></g></svg>