<svg xmlns="http://www.w3.org/2000/svg" xmlns:xlink="http://www.w3.org/1999/xlink" width="5000" zoomAndPan="magnify" viewBox="0 0 3750 1499.999933" height="2000" preserveAspectRatio="xMidYMid meet" version="1.0"><defs><g/><clipPath id="602793fc1e"><path d="M 3026 353.382812 L 3748 353.382812 L 3748 1175.382812 L 3026 1175.382812 Z M 3026 353.382812 " clip-rule="nonzero"/></clipPath></defs><rect x="-375" width="4500" fill="#ffffff" y="-149.999993" height="1799.99992" fill-opacity="1"/><rect x="-375" width="4500" fill="#ffffff" y="-149.999993" height="1799.99992" fill-opacity="1"/><g fill="#005f98" fill-opacity="1"><g transform="translate(34.580137, 854.944186)"><g><path d="M 110.34375 2.640625 C 91.6875 2.640625 74.832031 -1.445312 59.78125 -9.625 C 44.738281 -17.8125 32.945312 -29.117188 24.40625 -43.546875 C 15.875 -57.984375 11.609375 -74.265625 11.609375 -92.390625 C 11.609375 -110.515625 15.921875 -126.789062 24.546875 -141.21875 C 33.171875 -155.65625 45.003906 -166.960938 60.046875 -175.140625 C 75.097656 -183.328125 91.953125 -187.421875 110.609375 -187.421875 C 125.734375 -187.421875 139.539062 -184.78125 152.03125 -179.5 C 164.53125 -174.21875 175.09375 -166.5625 183.71875 -156.53125 L 161.546875 -135.6875 C 148.171875 -150.113281 131.71875 -157.328125 112.1875 -157.328125 C 99.519531 -157.328125 88.171875 -154.554688 78.140625 -149.015625 C 68.109375 -143.472656 60.273438 -135.769531 54.640625 -125.90625 C 49.003906 -116.050781 46.1875 -104.878906 46.1875 -92.390625 C 46.1875 -79.890625 49.003906 -68.710938 54.640625 -58.859375 C 60.273438 -49.003906 68.109375 -41.304688 78.140625 -35.765625 C 88.171875 -30.222656 99.519531 -27.453125 112.1875 -27.453125 C 131.71875 -27.453125 148.171875 -34.753906 161.546875 -49.359375 L 183.71875 -28.25 C 175.09375 -18.21875 164.488281 -10.5625 151.90625 -5.28125 C 139.332031 0 125.476562 2.640625 110.34375 2.640625 Z M 110.34375 2.640625 "/></g></g></g><g fill="#005f98" fill-opacity="1"><g transform="translate(279.274584, 854.944186)"><g><path d="M 111.125 2.640625 C 92.300781 2.640625 75.320312 -1.445312 60.1875 -9.625 C 45.050781 -17.8125 33.171875 -29.164062 24.546875 -43.6875 C 15.921875 -58.207031 11.609375 -74.441406 11.609375 -92.390625 C 11.609375 -110.335938 15.921875 -126.570312 24.546875 -141.09375 C 33.171875 -155.613281 45.050781 -166.960938 60.1875 -175.140625 C 75.320312 -183.328125 92.300781 -187.421875 111.125 -187.421875 C 129.957031 -187.421875 146.941406 -183.328125 162.078125 -175.140625 C 177.210938 -166.960938 189.085938 -155.65625 197.703125 -141.21875 C 206.328125 -126.789062 210.640625 -110.515625 210.640625 -92.390625 C 210.640625 -74.265625 206.328125 -57.984375 197.703125 -43.546875 C 189.085938 -29.117188 177.210938 -17.8125 162.078125 -9.625 C 146.941406 -1.445312 129.957031 2.640625 111.125 2.640625 Z M 111.125 -27.453125 C 123.445312 -27.453125 134.535156 -30.222656 144.390625 -35.765625 C 154.242188 -41.304688 161.984375 -49.046875 167.609375 -58.984375 C 173.242188 -68.929688 176.0625 -80.066406 176.0625 -92.390625 C 176.0625 -104.703125 173.242188 -115.832031 167.609375 -125.78125 C 161.984375 -135.726562 154.242188 -143.472656 144.390625 -149.015625 C 134.535156 -154.554688 123.445312 -157.328125 111.125 -157.328125 C 98.8125 -157.328125 87.726562 -154.554688 77.875 -149.015625 C 68.019531 -143.472656 60.273438 -135.726562 54.640625 -125.78125 C 49.003906 -115.832031 46.1875 -104.703125 46.1875 -92.390625 C 46.1875 -80.066406 49.003906 -68.929688 54.640625 -58.984375 C 60.273438 -49.046875 68.019531 -41.304688 77.875 -35.765625 C 87.726562 -30.222656 98.8125 -27.453125 111.125 -27.453125 Z M 111.125 -27.453125 "/></g></g></g><g fill="#005f98" fill-opacity="1"><g transform="translate(554.32322, 854.944186)"><g><path d="M 110.34375 2.640625 C 91.6875 2.640625 74.832031 -1.445312 59.78125 -9.625 C 44.738281 -17.8125 32.945312 -29.117188 24.40625 -43.546875 C 15.875 -57.984375 11.609375 -74.265625 11.609375 -92.390625 C 11.609375 -110.515625 15.921875 -126.789062 24.546875 -141.21875 C 33.171875 -155.65625 45.003906 -166.960938 60.046875 -175.140625 C 75.097656 -183.328125 91.953125 -187.421875 110.609375 -187.421875 C 125.734375 -187.421875 139.539062 -184.78125 152.03125 -179.5 C 164.53125 -174.21875 175.09375 -166.5625 183.71875 -156.53125 L 161.546875 -135.6875 C 148.171875 -150.113281 131.71875 -157.328125 112.1875 -157.328125 C 99.519531 -157.328125 88.171875 -154.554688 78.140625 -149.015625 C 68.109375 -143.472656 60.273438 -135.769531 54.640625 -125.90625 C 49.003906 -116.050781 46.1875 -104.878906 46.1875 -92.390625 C 46.1875 -79.890625 49.003906 -68.710938 54.640625 -58.859375 C 60.273438 -49.003906 68.109375 -41.304688 78.140625 -35.765625 C 88.171875 -30.222656 99.519531 -27.453125 112.1875 -27.453125 C 131.71875 -27.453125 148.171875 -34.753906 161.546875 -49.359375 L 183.71875 -28.25 C 175.09375 -18.21875 164.488281 -10.5625 151.90625 -5.28125 C 139.332031 0 125.476562 2.640625 110.34375 2.640625 Z M 110.34375 2.640625 "/></g></g></g><g fill="#005f98" fill-opacity="1"><g transform="translate(799.017623, 854.944186)"><g><path d="M 111.125 2.640625 C 92.300781 2.640625 75.320312 -1.445312 60.1875 -9.625 C 45.050781 -17.8125 33.171875 -29.164062 24.546875 -43.6875 C 15.921875 -58.207031 11.609375 -74.441406 11.609375 -92.390625 C 11.609375 -110.335938 15.921875 -126.570312 24.546875 -141.09375 C 33.171875 -155.613281 45.050781 -166.960938 60.1875 -175.140625 C 75.320312 -183.328125 92.300781 -187.421875 111.125 -187.421875 C 129.957031 -187.421875 146.941406 -183.328125 162.078125 -175.140625 C 177.210938 -166.960938 189.085938 -155.65625 197.703125 -141.21875 C 206.328125 -126.789062 210.640625 -110.515625 210.640625 -92.390625 C 210.640625 -74.265625 206.328125 -57.984375 197.703125 -43.546875 C 189.085938 -29.117188 177.210938 -17.8125 162.078125 -9.625 C 146.941406 -1.445312 129.957031 2.640625 111.125 2.640625 Z M 111.125 -27.453125 C 123.445312 -27.453125 134.535156 -30.222656 144.390625 -35.765625 C 154.242188 -41.304688 161.984375 -49.046875 167.609375 -58.984375 C 173.242188 -68.929688 176.0625 -80.066406 176.0625 -92.390625 C 176.0625 -104.703125 173.242188 -115.832031 167.609375 -125.78125 C 161.984375 -135.726562 154.242188 -143.472656 144.390625 -149.015625 C 134.535156 -154.554688 123.445312 -157.328125 111.125 -157.328125 C 98.8125 -157.328125 87.726562 -154.554688 77.875 -149.015625 C 68.019531 -143.472656 60.273438 -135.726562 54.640625 -125.78125 C 49.003906 -115.832031 46.1875 -104.703125 46.1875 -92.390625 C 46.1875 -80.066406 49.003906 -68.929688 54.640625 -58.984375 C 60.273438 -49.046875 68.019531 -41.304688 77.875 -35.765625 C 87.726562 -30.222656 98.8125 -27.453125 111.125 -27.453125 Z M 111.125 -27.453125 "/></g></g></g><g fill="#005f98" fill-opacity="1"><g transform="translate(1074.066293, 854.944186)"><g/></g></g><g fill="#005f98" fill-opacity="1"><g transform="translate(1199.719496, 854.944186)"><g><path d="M 24.8125 -184.78125 L 105.59375 -184.78125 C 125.300781 -184.78125 142.804688 -180.953125 158.109375 -173.296875 C 173.421875 -165.640625 185.300781 -154.816406 193.75 -140.828125 C 202.195312 -126.835938 206.421875 -110.691406 206.421875 -92.390625 C 206.421875 -74.085938 202.195312 -57.941406 193.75 -43.953125 C 185.300781 -29.960938 173.421875 -19.140625 158.109375 -11.484375 C 142.804688 -3.828125 125.300781 0 105.59375 0 L 24.8125 0 Z M 104 -29.03125 C 117.550781 -29.03125 129.472656 -31.625 139.765625 -36.8125 C 150.066406 -42.007812 157.988281 -49.40625 163.53125 -59 C 169.070312 -68.59375 171.84375 -79.722656 171.84375 -92.390625 C 171.84375 -105.054688 169.070312 -116.1875 163.53125 -125.78125 C 157.988281 -135.375 150.066406 -142.765625 139.765625 -147.953125 C 129.472656 -153.140625 117.550781 -155.734375 104 -155.734375 L 59.125 -155.734375 L 59.125 -29.03125 Z M 104 -29.03125 "/></g></g></g><g fill="#005f98" fill-opacity="1"><g transform="translate(1470.545015, 854.944186)"><g><path d="M 163.390625 -28.765625 L 163.390625 0 L 24.8125 0 L 24.8125 -184.78125 L 159.703125 -184.78125 L 159.703125 -156 L 59.125 -156 L 59.125 -107.96875 L 148.34375 -107.96875 L 148.34375 -79.71875 L 59.125 -79.71875 L 59.125 -28.765625 Z M 163.390625 -28.765625 "/></g></g></g><g fill="#005f98" fill-opacity="1"><g transform="translate(1700.194399, 854.944186)"><g/></g></g><g fill="#005f98" fill-opacity="1"><g transform="translate(1825.847602, 854.944186)"><g><path d="M 189 -184.78125 L 189 0 L 160.75 0 L 58.859375 -125.125 L 58.859375 0 L 24.8125 0 L 24.8125 -184.78125 L 53.0625 -184.78125 L 154.953125 -59.65625 L 154.953125 -184.78125 Z M 189 -184.78125 "/></g></g></g><g fill="#005f98" fill-opacity="1"><g transform="translate(2092.44997, 854.944186)"><g><path d="M 24.8125 -184.78125 L 59.125 -184.78125 L 59.125 0 L 24.8125 0 Z M 24.8125 -184.78125 "/></g></g></g><g fill="#005f98" fill-opacity="1"><g transform="translate(2229.452909, 854.944186)"><g><path d="M 163.390625 -28.765625 L 163.390625 0 L 24.8125 0 L 24.8125 -184.78125 L 159.703125 -184.78125 L 159.703125 -156 L 59.125 -156 L 59.125 -107.96875 L 148.34375 -107.96875 L 148.34375 -79.71875 L 59.125 -79.71875 L 59.125 -28.765625 Z M 163.390625 -28.765625 "/></g></g></g><g fill="#005f98" fill-opacity="1"><g transform="translate(2459.102293, 854.944186)"><g><path d="M 193.75 -184.78125 L 113.25 0 L 79.453125 0 L -1.3125 -184.78125 L 35.90625 -184.78125 L 97.40625 -42.234375 L 159.4375 -184.78125 Z M 193.75 -184.78125 "/></g></g></g><g fill="#005f98" fill-opacity="1"><g transform="translate(2704.324741, 854.944186)"><g><path d="M 163.390625 -28.765625 L 163.390625 0 L 24.8125 0 L 24.8125 -184.78125 L 159.703125 -184.78125 L 159.703125 -156 L 59.125 -156 L 59.125 -107.96875 L 148.34375 -107.96875 L 148.34375 -79.71875 L 59.125 -79.71875 L 59.125 -28.765625 Z M 163.390625 -28.765625 "/></g></g></g><g clip-path="url(#602793fc1e)"><path fill="#27aae1" d="M 3713.761719 800.601562 L 3713.414062 799.300781 C 3710.546875 788.417969 3699.417969 781.914062 3688.53125 784.78125 L 3543.203125 822.972656 C 3538.011719 824.335938 3532.488281 823.59375 3527.832031 820.914062 L 3461.050781 782.359375 L 3461.15625 782.179688 C 3447.570312 774.34375 3447.570312 754.738281 3461.15625 746.894531 L 3529.9375 707.1875 C 3534.589844 704.503906 3540.113281 703.761719 3545.304688 705.132812 L 3688.53125 742.773438 C 3699.417969 745.636719 3710.546875 739.136719 3713.414062 728.253906 L 3713.761719 726.949219 C 3716.625 716.066406 3710.117188 704.921875 3699.230469 702.058594 L 3636.898438 685.679688 C 3619.296875 681.058594 3616.132812 657.433594 3631.894531 648.339844 L 3737.195312 587.550781 C 3746.9375 581.925781 3750.28125 569.464844 3744.652344 559.722656 L 3743.976562 558.558594 C 3738.347656 548.8125 3725.890625 545.46875 3716.144531 551.097656 L 3609.507812 612.65625 C 3593.746094 621.75 3574.871094 607.199219 3579.660156 589.644531 L 3597.210938 525.390625 C 3600.179688 514.53125 3593.78125 503.328125 3582.921875 500.367188 L 3581.613281 500.011719 C 3570.765625 497.050781 3559.566406 503.449219 3556.601562 514.296875 L 3517.019531 659.226562 C 3515.605469 664.410156 3512.207031 668.820312 3507.550781 671.507812 L 3439.4375 710.824219 L 3439.339844 710.648438 L 3439.335938 710.65625 C 3425.75 718.492188 3408.769531 708.691406 3408.769531 693.007812 L 3408.769531 612.066406 C 3408.769531 606.703125 3410.890625 601.542969 3414.671875 597.730469 L 3518.890625 492.535156 C 3526.8125 484.542969 3526.753906 471.640625 3518.757812 463.726562 L 3517.792969 462.777344 C 3509.800781 454.859375 3496.898438 454.917969 3488.980469 462.910156 L 3443.625 508.695312 C 3430.816406 521.621094 3408.769531 512.554688 3408.769531 494.359375 L 3408.769531 372.785156 C 3408.769531 361.535156 3399.648438 352.414062 3388.394531 352.414062 L 3387.050781 352.414062 C 3375.800781 352.414062 3366.675781 361.535156 3366.675781 372.785156 L 3366.675781 495.90625 C 3366.675781 514.101562 3344.628906 523.167969 3331.824219 510.242188 L 3284.941406 462.910156 C 3277.019531 454.917969 3264.117188 454.859375 3256.125 462.777344 L 3255.164062 463.726562 C 3247.171875 471.640625 3247.109375 484.542969 3255.027344 492.535156 L 3360.777344 599.277344 C 3364.554688 603.089844 3366.675781 608.238281 3366.675781 613.613281 L 3366.675781 692.355469 C 3366.675781 708.042969 3349.695312 717.84375 3336.113281 710 L 3265.796875 669.410156 C 3261.144531 666.726562 3257.742188 662.316406 3256.328125 657.132812 L 3217.320312 514.296875 C 3214.355469 503.449219 3203.15625 497.050781 3192.300781 500.011719 L 3190.996094 500.367188 C 3180.136719 503.328125 3173.738281 514.53125 3176.703125 525.390625 L 3193.683594 587.550781 C 3198.476562 605.101562 3179.601562 619.65625 3163.839844 610.558594 L 3058.542969 549.777344 C 3048.796875 544.148438 3036.335938 547.480469 3030.707031 557.226562 L 3030.03125 558.398438 C 3024.40625 568.140625 3027.742188 580.601562 3037.488281 586.226562 L 3144.128906 647.78125 C 3159.890625 656.882812 3156.722656 680.5 3139.121094 685.128906 L 3074.6875 702.058594 C 3063.800781 704.921875 3057.292969 716.066406 3060.160156 726.949219 L 3060.503906 728.253906 C 3063.367188 739.136719 3074.507812 745.636719 3085.390625 742.773438 L 3230.714844 704.574219 C 3235.914062 703.210938 3241.433594 703.953125 3246.085938 706.636719 L 3312.867188 745.191406 L 3312.761719 745.367188 L 3315.414062 746.902344 C 3329 754.738281 3329 774.34375 3315.414062 782.183594 L 3243.988281 823.417969 C 3239.335938 826.105469 3233.816406 826.84375 3228.621094 825.472656 L 3085.390625 787.832031 C 3074.507812 784.96875 3063.367188 791.46875 3060.503906 802.351562 L 3060.160156 803.664062 C 3057.292969 814.546875 3063.800781 825.6875 3074.6875 828.546875 L 3137.019531 844.929688 C 3154.621094 849.554688 3157.792969 873.171875 3142.027344 882.273438 L 3036.726562 943.058594 C 3026.980469 948.6875 3023.644531 961.140625 3029.269531 970.882812 L 3029.941406 972.050781 C 3035.570312 981.792969 3048.03125 985.132812 3057.777344 979.507812 L 3164.414062 917.949219 C 3180.175781 908.855469 3199.050781 923.40625 3194.257812 940.960938 L 3176.703125 1005.214844 C 3173.738281 1016.074219 3180.136719 1027.277344 3190.996094 1030.238281 L 3192.300781 1030.59375 C 3203.15625 1033.554688 3214.355469 1027.160156 3217.320312 1016.3125 L 3256.898438 871.375 C 3258.3125 866.195312 3261.71875 861.785156 3266.367188 859.097656 L 3334.480469 819.785156 L 3334.578125 819.964844 L 3336.113281 819.074219 C 3349.695312 811.234375 3366.675781 821.039062 3366.675781 836.71875 L 3366.675781 917.011719 C 3366.675781 922.386719 3364.554688 927.535156 3360.777344 931.347656 L 3256.558594 1036.542969 C 3248.636719 1044.535156 3248.699219 1057.4375 3256.691406 1065.351562 L 3257.652344 1066.308594 C 3265.648438 1074.222656 3278.546875 1074.164062 3286.46875 1066.171875 L 3331.824219 1020.386719 C 3344.628906 1007.457031 3366.675781 1016.527344 3366.675781 1034.71875 L 3366.675781 1156.292969 C 3366.675781 1167.542969 3375.800781 1176.664062 3387.050781 1176.664062 L 3388.394531 1176.664062 C 3399.648438 1176.664062 3408.769531 1167.542969 3408.769531 1156.292969 L 3408.769531 1033.175781 C 3408.769531 1014.980469 3430.816406 1005.910156 3443.625 1018.84375 L 3490.507812 1066.171875 C 3498.421875 1074.164062 3511.328125 1074.222656 3519.320312 1066.308594 L 3520.285156 1065.351562 C 3528.277344 1057.4375 3528.335938 1044.535156 3520.421875 1036.542969 L 3414.671875 929.808594 C 3410.890625 925.988281 3408.769531 920.839844 3408.769531 915.472656 L 3408.769531 836.074219 C 3408.769531 820.386719 3425.75 810.589844 3439.335938 818.429688 L 3508.121094 858.140625 C 3512.773438 860.820312 3516.175781 865.238281 3517.589844 870.414062 L 3556.601562 1013.25 C 3559.566406 1024.105469 3570.765625 1030.503906 3581.613281 1027.539062 L 3582.925781 1027.179688 C 3593.785156 1024.214844 3600.179688 1013.019531 3597.210938 1002.164062 L 3580.242188 940.003906 C 3575.441406 922.453125 3594.316406 907.890625 3610.082031 916.992188 L 3715.378906 977.777344 C 3725.125 983.40625 3737.589844 980.066406 3743.210938 970.320312 L 3743.886719 969.152344 C 3749.515625 959.40625 3746.171875 946.949219 3736.429688 941.320312 L 3629.789062 879.765625 C 3614.027344 870.671875 3617.199219 847.042969 3634.800781 842.417969 L 3699.230469 825.488281 C 3710.117188 822.628906 3716.625 811.484375 3713.761719 800.601562 " fill-opacity="1" fill-rule="nonzero"/></g></svg>